<svg width="688" height="925" viewBox="0 0 688 925" fill="none" xmlns="http://www.w3.org/2000/svg">
<path d="M335.379 0L670.76 548.168H652.5L242.115 152.438L335.379 0Z" fill="#FF5757"/>
<path d="M121.886 548.168H161.251L372.687 293.501L239.399 164.974L121.886 548.168Z" fill="#FF914D"/>
<path d="M287.007 548.168H175.43L288.899 411.498L287.007 548.168Z" fill="#FFBD59"/>
<path d="M297.917 548.168H502.355L299.985 398.8L297.917 548.168Z" fill="#FF5757"/>
<path d="M525.591 548.168L388.467 308.718L636.784 548.168H525.591Z" fill="#FF914D"/>
<path d="M507.38 538.319L306.627 390.144L375.216 307.531L507.38 538.319Z" fill="#FFBD59"/>
<path d="M110.476 548.168H0L221.5 186.132L110.476 548.168Z" fill="#FFBD59"/>
<path d="M23.4496 868.311H57.7361V874.242H23.4496V868.311ZM24.1909 901.763H17.3336V836.897H61.8134V842.828H24.1909V901.763ZM75.974 901.763V836.897H100.252C105.751 836.897 110.477 837.793 114.43 839.584C118.384 841.314 121.411 843.847 123.512 847.183C125.674 850.457 126.755 854.442 126.755 859.137C126.755 863.709 125.674 867.662 123.512 870.998C121.411 874.272 118.384 876.805 114.43 878.597C110.477 880.327 105.751 881.192 100.252 881.192H79.7733L82.8312 878.041V901.763H75.974ZM120.268 901.763L103.588 878.226H111.002L127.774 901.763H120.268ZM82.8312 878.597L79.7733 875.354H100.067C106.554 875.354 111.465 873.933 114.801 871.091C118.199 868.249 119.898 864.265 119.898 859.137C119.898 853.948 118.199 849.932 114.801 847.09C111.465 844.249 106.554 842.828 100.067 842.828H79.7733L82.8312 839.584V878.597ZM132.561 901.763L162.214 836.897H168.979L198.632 901.763H191.404L164.16 840.882H166.94L139.696 901.763H132.561ZM144.237 884.435L146.276 878.875H183.991L186.03 884.435H144.237ZM209.363 901.763V836.897H215.015L244.668 887.493H241.703L271.078 836.897H276.731V901.763H270.152V847.183H271.727L244.668 893.516H241.425L214.181 847.183H215.942V901.763H209.363ZM303.982 865.902H338.268V871.74H303.982V865.902ZM304.723 895.833H343.736V901.763H297.866V836.897H342.346V842.828H304.723V895.833ZM373.684 901.763L351.814 836.897H358.857L379.336 897.964H375.815L396.943 836.897H403.244L424.094 897.964H420.758L441.423 836.897H448.002L426.133 901.763H418.905L398.982 843.847H400.835L380.819 901.763H373.684ZM488.388 902.319C483.507 902.319 478.967 901.516 474.766 899.91C470.627 898.242 467.013 895.925 463.924 892.96C460.897 889.933 458.518 886.443 456.789 882.489C455.121 878.473 454.287 874.087 454.287 869.33C454.287 864.573 455.121 860.218 456.789 856.264C458.518 852.249 460.897 848.758 463.924 845.793C467.013 842.766 470.627 840.449 474.766 838.843C478.905 837.175 483.446 836.341 488.388 836.341C493.268 836.341 497.778 837.175 501.917 838.843C506.056 840.449 509.639 842.735 512.666 845.7C515.755 848.666 518.134 852.156 519.802 856.172C521.531 860.187 522.396 864.573 522.396 869.33C522.396 874.087 521.531 878.473 519.802 882.489C518.134 886.504 515.755 889.995 512.666 892.96C509.639 895.925 506.056 898.242 501.917 899.91C497.778 901.516 493.268 902.319 488.388 902.319ZM488.388 896.203C492.28 896.203 495.863 895.555 499.137 894.257C502.473 892.898 505.346 891.014 507.755 888.605C510.226 886.134 512.141 883.292 513.5 880.08C514.859 876.805 515.539 873.222 515.539 869.33C515.539 865.438 514.859 861.886 513.5 858.674C512.141 855.399 510.226 852.558 507.755 850.148C505.346 847.677 502.473 845.793 499.137 844.496C495.863 843.137 492.28 842.457 488.388 842.457C484.496 842.457 480.882 843.137 477.546 844.496C474.21 845.793 471.306 847.677 468.835 850.148C466.426 852.558 464.511 855.399 463.09 858.674C461.731 861.886 461.051 865.438 461.051 869.33C461.051 873.16 461.731 876.713 463.09 879.987C464.511 883.261 466.426 886.134 468.835 888.605C471.306 891.014 474.21 892.898 477.546 894.257C480.882 895.555 484.496 896.203 488.388 896.203ZM537.766 901.763V836.897H562.045C567.543 836.897 572.269 837.793 576.223 839.584C580.177 841.314 583.204 843.847 585.304 847.183C587.466 850.457 588.548 854.442 588.548 859.137C588.548 863.709 587.466 867.662 585.304 870.998C583.204 874.272 580.177 876.805 576.223 878.597C572.269 880.327 567.543 881.192 562.045 881.192H541.566L544.624 878.041V901.763H537.766ZM582.061 901.763L565.381 878.226H572.794L589.567 901.763H582.061ZM544.624 878.597L541.566 875.354H561.86C568.346 875.354 573.258 873.933 576.594 871.091C579.991 868.249 581.69 864.265 581.69 859.137C581.69 853.948 579.991 849.932 576.594 847.09C573.258 844.249 568.346 842.828 561.86 842.828H541.566L544.624 839.584V878.597ZM610.663 885.64L610.385 877.3L649.675 836.897H657.552L628.918 866.921L625.026 871.091L610.663 885.64ZM604.732 901.763V836.897H611.59V901.763H604.732ZM651.343 901.763L623.358 869.516L627.991 864.512L659.498 901.763H651.343Z" fill="#FF5757"/>
<path d="M18.5379 812L126.612 571.836H170.528L278.945 812H232.284L139.306 595.509H157.147L64.5122 812H18.5379ZM68.2862 756.419L80.2944 721.424H209.983L221.991 756.419H68.2862ZM360.306 814.402C344.981 814.402 330.228 812.457 316.047 808.569C302.094 804.452 291.001 799.534 282.767 793.816L299.235 761.222C307.47 766.483 317.305 770.829 328.741 774.26C340.178 777.691 351.614 779.406 363.05 779.406C376.545 779.406 386.266 777.576 392.213 773.917C398.389 770.257 401.477 765.339 401.477 759.164C401.477 754.132 399.418 750.358 395.301 747.842C391.184 745.097 385.809 743.039 379.176 741.666C372.543 740.294 365.109 739.036 356.875 737.892C348.869 736.748 340.75 735.262 332.515 733.432C324.51 731.373 317.191 728.514 310.557 724.855C303.924 720.966 298.549 715.82 294.432 709.415C290.315 703.011 288.256 694.548 288.256 684.027C288.256 672.362 291.573 662.298 298.206 653.835C304.839 645.143 314.103 638.51 325.997 633.935C338.119 629.132 352.415 626.73 368.883 626.73C381.234 626.73 393.7 628.103 406.28 630.847C418.86 633.592 429.267 637.481 437.501 642.513L421.033 675.106C412.341 669.846 403.535 666.3 394.615 664.47C385.923 662.412 377.232 661.383 368.54 661.383C355.502 661.383 345.782 663.327 339.377 667.215C333.201 671.104 330.114 676.021 330.114 681.968C330.114 687.458 332.172 691.575 336.289 694.319C340.406 697.064 345.782 699.237 352.415 700.838C359.048 702.439 366.367 703.812 374.373 704.955C382.607 705.87 390.727 707.357 398.732 709.415C406.738 711.474 414.057 714.333 420.69 717.993C427.552 721.424 433.041 726.341 437.158 732.746C441.275 739.15 443.334 747.499 443.334 757.791C443.334 769.228 439.903 779.178 433.041 787.64C426.408 796.103 416.916 802.737 404.565 807.54C392.213 812.114 377.46 814.402 360.306 814.402ZM584.224 626.73C598.863 626.73 611.9 629.589 623.337 635.308C635.002 641.026 644.151 649.832 650.784 661.726C657.417 673.391 660.734 688.487 660.734 707.014V812H617.847V712.503C617.847 696.264 613.959 684.141 606.182 676.136C598.634 668.13 587.998 664.127 574.275 664.127C564.211 664.127 555.29 666.186 547.513 670.303C539.737 674.42 533.675 680.596 529.329 688.83C525.212 696.835 523.154 707.014 523.154 719.365V812H480.267V557.426H523.154V678.194L513.89 663.098C520.295 651.433 529.558 642.513 541.681 636.337C554.032 629.932 568.213 626.73 584.224 626.73Z" fill="#FFBD59"/>
</svg>
