<svg width="939" height="741" viewBox="0 0 939 741" fill="none" xmlns="http://www.w3.org/2000/svg">
<path d="M470.482 294L743.966 741H729.078L394.43 418.305L470.482 294Z" fill="#FF5757"/>
<path d="M296.391 741H328.49L500.904 533.333L392.216 428.527L296.391 741Z" fill="#FF914D"/>
<path d="M431.037 741H340.052L432.58 629.553L431.037 741Z" fill="#FFBD59"/>
<path d="M439.934 741H606.641L441.62 619.199L439.934 741Z" fill="#FF5757"/>
<path d="M625.59 741L513.772 545.742L716.263 741H625.59Z" fill="#FF914D"/>
<path d="M610.739 732.969L447.037 612.141L502.967 544.774L610.739 732.969Z" fill="#FFBD59"/>
<path d="M287.086 741H196.999L377.62 445.78L287.086 741Z" fill="#FFBD59"/>
<path d="M470.482 294L766.5 741H729.078L394.43 418.305L470.482 294Z" fill="#FF5757"/>
<path d="M610.739 732.969L447.037 612.141L502.967 544.774L610.739 732.969Z" fill="#FFBD59"/>
<path d="M196.999 725.5L218.5 689L366 448.5H269.5L196.999 725.5Z" fill="#FF5757"/>
<path d="M197 688.5L197 294L260.5 441.5L197 688.5Z" fill="#FFBD59"/>
<path d="M763.305 317.27L763.305 690.5L710.805 510.77L763.305 317.27Z" fill="#FF5757"/>
<path d="M764.5 720L481 294L633.5 294L764.5 720Z" fill="#FFBD59"/>
<path d="M218.5 295L458.5 295L380 427.5L218.5 295Z" fill="#FFBD59"/>
<path d="M205 294L378.56 439.5L270.5 439.5L205 294Z" fill="#FF914D"/>
<path d="M641.439 294L763 294L705 500L641.439 294Z" fill="#FF914D"/>
<path d="M321 251.125V189.375C321 148.432 337.264 109.166 366.215 80.2154C395.166 51.2645 434.432 35 475.375 35C516.318 35 555.584 51.2645 584.535 80.2154C613.486 109.166 629.75 148.432 629.75 189.375V251.125" stroke="#FF5757" stroke-width="70" stroke-linecap="square" stroke-linejoin="round"/>
</svg>
